<svg id="Layer_1" data-name="Layer 1" xmlns="http://www.w3.org/2000/svg" viewBox="0 0 923.13 1316.29"><defs><style>.cls-1{fill:#0063ca;}</style></defs><polygon class="cls-1" points="461.66 942.97 512.83 862.01 511.16 859.37 462.53 778.91 461.5 780.55 460.6 779.12 418.22 849.24 410.3 861.8 461.47 942.75 461.5 942.71 461.66 942.97"/><path class="cls-1" d="M1019.81,1005.12c0-.63.05-1.25.05-1.88a161.83,161.83,0,0,0-24.06-85.12,165.77,165.77,0,0,0-141.58-78.94c-91.41,0-165.51,73.36-165.51,163.85,0,.63,0,1.25,0,1.88s0,1.25,0,1.88a161.83,161.83,0,0,0,24.06,85.12,165.77,165.77,0,0,0,141.58,78.94c91.41,0,165.51-73.36,165.51-163.85C1019.86,1006.37,1019.82,1005.75,1019.81,1005.12Zm-306.24,0c1-76.12,63.64-137.53,140.78-137.53A141,141,0,0,1,974.1,933.65,137.78,137.78,0,0,1,995,1004.91c-1,76.12-63.63,137.53-140.77,137.53a141,141,0,0,1-119.75-66.06A137.72,137.72,0,0,1,713.57,1005.12Z" transform="translate(-593.25 -296.71)"/><polygon class="cls-1" points="22.41 196.9 157.48 254.67 460.47 318.96 460.47 319.21 460.6 319.19 460.6 319.43 461.63 319.2 462.66 319.43 462.66 318.99 765.78 254.67 900.85 196.9 923.13 185.18 922.83 185.06 923 184.97 462.66 0.88 462.66 0.21 462.53 0.26 462.53 0 461.5 0.41 460.47 0 460.47 0.83 0 184.97 0.28 185.12 0.13 185.18 22.41 196.9"/><path class="cls-1" d="M1355.57,1418.73c-18.47,28.85-34.59,59.63-46.31,91.85-12,33-18.69,67.54-21.72,102.42h213.3V1296.82C1437.55,1307.69,1388.08,1367.93,1355.57,1418.73Z" transform="translate(-593.25 -296.71)"/><path class="cls-1" d="M1343,949.85A102.6,102.6,0,0,0,1152.69,1003c0,.63,0,1.25,0,1.88s0,1.25,0,1.88A102.66,102.66,0,1,0,1358,1007c0-.63,0-1.25,0-1.88s0-1.25,0-1.88A102.07,102.07,0,0,0,1343,949.85Z" transform="translate(-593.25 -296.71)"/><path class="cls-1" d="M1404.67,1316.42c27.68-23.94,60-42.85,96.17-48.26v-652l-.13,0v-.26l-446,143.6-446-143.6v652l.13,0v.19c36.16,5.41,68.49,24.32,96.17,48.26,30.27,26.17,56.49,58.42,78.13,93.5a502.37,502.37,0,0,1,46.18,97.38c12.05,34.55,18.34,69.84,21.09,105.49h.12c0,.07,0,.14,0,.21h408.52c2.76-35.65,9-70.94,21.09-105.49C1304.93,1436.68,1347.61,1365.77,1404.67,1316.42ZM988.9,1178.58h0a1.59,1.59,0,0,1-.13-.22c-36.88,31.54-81.54,42.55-133.87,42.55a210.74,210.74,0,0,1-69.06-11.58,214.3,214.3,0,0,1-110-84.81l-.36-.55q-.82-1.26-1.62-2.52c-.3-.46-.59-.92-.88-1.39l-1-1.68c-.46-.75-.91-1.5-1.36-2.25l-.49-.83a213.88,213.88,0,0,1,4-223.13l.3-.48c.68-1.06,1.38-2.11,2.09-3.17l1-1.41c.49-.73,1-1.44,1.49-2.16l1.61-2.29.88-1.2c.76-1,1.52-2.08,2.3-3.11l.23-.3A216.47,216.47,0,0,1,723.7,838a213.69,213.69,0,0,1,310.21,53.16l.46.73c.51.8,1,1.6,1.52,2.4.59,1,1.17,1.9,1.74,2.86.07.1.13.21.2.32a213.15,213.15,0,0,1,15.89,32.64v2.54l.13-.14v.35l1-1.05,1,1.05v-2.54c31.21-81,110.32-138.26,202.65-136.92,94.83,1.38,175.34,65.47,201.53,152.46l.15.51c.33,1.1.64,2.21,1,3.31s.64,2.31.94,3.48c0,.16.09.32.13.48a214.2,214.2,0,0,1,6.68,53.22c0,94.1-60.81,174-145.28,202.51a210.74,210.74,0,0,1-69.06,11.58c-52.33,0-97-11-133.87-42.55-20.41,36.35-44.22,64.76-66,100.12-19-30.88-39.56-56.45-58.06-86.63Q992.73,1185.37,988.9,1178.58Z" transform="translate(-593.25 -296.71)"/><polygon class="cls-1" points="461.63 415.65 462.66 415.98 462.66 415.32 765.09 319.43 765.78 285.05 765.65 285.08 765.65 284.84 461.5 351.18 157.34 284.84 158.04 319.21 158.17 319.25 158.18 319.43 460.47 415.28 460.47 415.77 460.6 415.72 460.6 415.98 461.63 415.65"/><path class="cls-1" d="M1113.83,1091.91a165.77,165.77,0,0,0,141.58,78.94c91.41,0,165.51-73.36,165.51-163.85,0-.63,0-1.25,0-1.88s0-1.25,0-1.88a161.83,161.83,0,0,0-24.06-85.12,165.77,165.77,0,0,0-141.58-78.94c-91.41,0-165.51,73.36-165.51,163.85,0,.63,0,1.25,0,1.88s0,1.25,0,1.88A161.92,161.92,0,0,0,1113.83,1091.91Zm282.23-87c-1,76.12-63.64,137.53-140.78,137.53a141,141,0,0,1-119.74-66.06,137.72,137.72,0,0,1-20.9-71.26c1-76.12,63.64-137.53,140.77-137.53a141,141,0,0,1,119.75,66.06A137.69,137.69,0,0,1,1396.06,1004.91Z" transform="translate(-593.25 -296.71)"/><path class="cls-1" d="M754.06,1418.52c-32.51-50.8-82-111-145.27-121.91v316.18h213.3c-3-34.88-9.71-69.41-21.72-102.42C788.65,1478.15,772.53,1447.37,754.06,1418.52Z" transform="translate(-593.25 -296.71)"/><path class="cls-1" d="M766.6,1060.18A102.6,102.6,0,0,0,956.94,1007c0-.63,0-1.25-.05-1.88s.05-1.25.05-1.88a102.66,102.66,0,1,0-205.31-.21c0,.63,0,1.25,0,1.88s0,1.25,0,1.88A102.07,102.07,0,0,0,766.6,1060.18Z" transform="translate(-593.25 -296.71)"/></svg>